<svg viewBox="0 0 238 138" version="1.1" xmlns="http://www.w3.org/2000/svg" xmlns:xlink="http://www.w3.org/1999/xlink">
    <g id="BKLogo" stroke="none" stroke-width="1" fill="none" fill-rule="evenodd">
        <g id="BKLogo" transform="translate(-279.000000, -185.000000)">
            <g id="Balansekunst_logo_sorthvit" transform="translate(279.000000, 185.000000)">
                <polygon id="Fill-1" fill="#1A1919" points="0.0978794702 0 0.0978794702 100.290358 110.781648 101.078146 110.781648 137.69247 237.34227 137.69247 237.34227 38.5979603 123.14727 38.5979603 123.14727 0"></polygon>
                <g id="Group-26" transform="translate(12.794702, 11.013954)" fill="#FFFFFE">
                    <path d="M21.4464795,30.9355788 C22.3507907,30.1043801 22.8036318,28.9062477 22.8036318,27.336155 C22.8036318,24.2334397 21.007804,22.801804 17.4170623,23.0398768 L9.52455894,23.5630887 L9.52455894,33.1764795 L17.4170623,32.4398702 C19.1978106,32.2735391 20.5417113,31.7708901 21.4464795,30.9355788 L21.4464795,30.9355788 Z M9.52455894,7.83611523 L9.52455894,17.005347 L16.2477179,16.6841086 C17.9178834,16.6041417 19.1845589,16.1650093 20.0472874,15.3699099 C20.9104728,14.5784662 21.3418371,13.4502477 21.3418371,11.9815987 C21.3418371,10.5134066 20.9104728,9.42402914 20.0472874,8.7107245 C19.1845589,7.99422119 17.9178834,7.65150596 16.2477179,7.68806225 L9.52455894,7.83611523 Z M28.1906583,22.0354927 C29.1365523,23.5320159 29.6104132,25.4119232 29.6104132,27.6838967 C29.6104132,30.8990225 28.6147113,33.4712146 26.6246781,35.4141815 C24.6341881,37.3786252 21.7316185,38.583155 17.9178834,39.0117775 L2.80094305,40.712102 L2.80094305,1.07594305 L17.0830291,1.03472259 C20.6458967,1.02430728 23.3812212,1.88932053 25.2880887,3.61340662 C27.1949563,5.31875762 28.1486185,7.63779735 28.1486185,10.5860623 C28.1486185,12.3768636 27.8077311,13.9885391 27.1254993,15.4247444 C26.4432675,16.8668901 25.4900623,18.0289232 24.2654265,18.9108437 C25.9355921,19.489804 27.2443073,20.5316583 28.1906583,22.0354927 L28.1906583,22.0354927 Z" id="Fill-2"></path>
                    <path d="M55.9969272,20.6547616 L51.3615894,7.82670199 L46.7262517,21.2743907 L55.9969272,20.6547616 Z M58.1267881,26.4123775 L44.5548079,27.580351 L41.9657086,35.377351 L35.0337219,36.1368079 L48.0623841,0.0324437086 L54.7439603,0.0324437086 L67.8142053,32.5451523 L60.7158874,33.3228874 L58.1267881,26.4123775 Z" id="Fill-4"></path>
                    <polygon id="Fill-6" points="76.3360252 0.032489404 83.1012238 0.032489404 83.1012238 25.0548139 97.7584689 23.7515821 97.7584689 29.2642709 76.3360252 31.6111848"></polygon>
                    <path d="M21.3358053,64.9460444 L16.7004675,53.3412497 L12.0651298,65.3029252 L21.3358053,64.9460444 Z M23.4656662,70.3842497 L9.89368609,70.6817265 L7.30458675,77.142594 L0.3726,77.1540179 L13.4012623,46.6683556 L20.0828384,46.0254219 L33.1530834,77.1010113 L26.0547656,77.1124351 L23.4656662,70.3842497 Z" id="Fill-8"></path>
                    <polygon id="Fill-10" points="67.155004 41.4959146 67.155004 77.0455371 61.6007325 77.0542192 47.026653 56.6507821 47.026653 77.0779808 40.3455338 77.0894046 40.3455338 44.0758748 45.9413881 43.5371265 60.4729709 63.3387556 60.4729709 42.1388483"></polygon>
                    <path d="M82.4205457,76.466257 C80.2623536,75.6839523 78.5295854,74.6718 77.2217841,73.4311709 L79.5179762,67.0068596 C80.770943,68.1295947 82.259698,69.0270517 83.9860689,69.6964887 C85.7119828,70.3718662 87.4378967,70.6963033 89.1647245,70.6661444 C91.0853007,70.6323298 92.5055126,70.2375219 93.4239894,69.4776079 C94.3424662,68.7149523 94.8021616,67.7137669 94.8021616,66.4786212 C94.8021616,65.5697404 94.5307311,64.8235351 93.9878702,64.242747 C93.4445523,63.6624159 92.7486119,63.208204 91.8995921,62.8778265 C91.0501152,62.5492768 89.9017907,62.1969656 88.4546185,61.8245483 C86.2269695,61.2373629 84.4041815,60.6401245 82.9839695,60.0310053 C81.5642146,59.4278265 80.3459762,58.4147603 79.3301682,56.997747 C78.3139033,55.5875881 77.8062278,53.666098 77.8062278,51.2291642 C77.8062278,49.1061576 78.2654662,47.1462834 79.183943,45.3440583 C80.1028768,43.5336079 81.4874464,42.0329722 83.3390225,40.8394093 C85.1901417,39.6367073 87.4520623,38.9010119 90.1247841,38.6396344 C91.9896119,38.456853 93.8133139,38.5683497 95.5954331,38.9782371 C97.3766384,39.3936079 98.9362212,40.0900053 100.272354,41.0724556 L98.1845325,48.0208927 C95.4834795,46.2159258 92.7828834,45.4313364 90.0832013,45.6479325 C88.1895854,45.800098 86.7908503,46.3045748 85.8865391,47.1581642 C84.9813139,48.008555 84.5293868,49.0696013 84.5293868,50.3449589 C84.5293868,51.6194026 85.0512278,52.5346808 86.0953669,53.0894225 C87.139049,53.6491907 88.7324464,54.1701179 90.8764728,54.6544887 C93.1036649,55.2151709 94.9273669,55.8041841 96.3471219,56.4197007 C97.7664199,57.0411576 98.9846583,58.0807272 100.000923,59.5416079 C101.017188,61.0098 101.525321,63.040045 101.525321,65.6268596 C101.525321,67.8435417 101.058771,69.8760715 100.126128,71.7157669 C99.1930291,73.5486079 97.794294,74.9998927 95.9290093,76.0691642 C94.0637245,77.1279258 91.7954066,77.6552503 89.1226848,77.6552503 C86.8114132,77.6552503 84.5778238,77.2563298 82.4205457,76.466257" id="Fill-12"></path>
                    <polygon id="Fill-14" points="133.112515 69.0215682 133.112515 75.6816675 110.479601 77.6557073 110.479601 39.8208596 132.570111 39.8208596 132.570111 46.4896411 117.20276 46.7386808 117.20276 54.8267603 130.774283 54.3497007 130.774283 60.842098 117.20276 61.5316411 117.20276 70.1516146"></polygon>
                    <polygon id="Fill-16" points="156.972761 60.3300815 153.047529 65.3154457 153.047529 73.9431874 146.323913 74.5294589 146.323913 39.8206311 153.047529 39.8206311 153.047529 55.761002 165.992569 39.8206311 173.508999 39.8206311 161.399271 54.7049821 174.219105 72.0970947 166.327059 72.7852669"></polygon>
                    <path d="M186.144133,67.8890086 C183.819153,65.5859623 182.65712,62.1103728 182.65712,57.4832603 L182.65712,39.8206311 L189.422319,39.8206311 L189.422319,56.8878497 C189.422319,62.4297834 191.593762,65.0449291 195.93665,64.7346576 C198.051888,64.583406 199.666762,63.8166377 200.780358,62.4402934 C201.893954,61.073545 202.450981,59.0158828 202.450981,56.2613662 L202.450981,39.8206311 L209.132557,39.8206311 L209.132557,56.1900815 C209.132557,60.4781344 207.96961,63.8600483 205.645544,66.3604987 C203.320564,68.8938497 200.070709,70.3570152 195.895067,70.7276046 C191.718511,71.098194 188.468199,70.1605252 186.144133,67.8890086" id="Fill-18"></path>
                    <polygon id="Fill-20" points="137.163958 83.1166232 137.163958 114.770259 131.610143 114.785338 117.035607 96.7100801 117.035607 114.824636 110.354487 114.842458 110.354487 85.6106762 115.950342 85.090206 130.482381 102.59016 130.482381 83.7380801"></polygon>
                    <path d="M152.263991,114.097121 C150.108997,113.39067 148.380342,112.481789 147.07711,111.370478 L149.399805,105.64622 C150.648203,106.651518 152.133302,107.456213 153.856474,108.058935 C155.579646,108.667597 157.304189,108.963703 159.031017,108.942226 C160.951593,108.918465 162.373176,108.570266 163.294395,107.893975 C164.215613,107.214485 164.679421,106.320226 164.683991,105.215313 C164.687189,104.402392 164.419415,103.734326 163.878838,103.213399 C163.337805,102.692928 162.643693,102.284869 161.796044,101.986935 C160.947938,101.691743 159.801441,101.37416 158.356097,101.038299 C156.130732,100.509604 154.310686,99.9726834 152.893673,99.4270808 C151.476203,98.8860477 150.262534,97.9803656 149.252666,96.714604 C148.241885,95.4556967 147.742434,93.7412066 147.752487,91.5665642 C147.76117,89.6724914 148.228176,87.9228159 149.153507,86.3134252 C150.079752,84.6958093 151.469805,83.3546503 153.325494,82.2853788 C155.180726,81.2078821 157.444474,80.5471272 160.117653,80.3090543 C161.982481,80.1431801 163.804812,80.2405113 165.583732,80.6051603 C167.36311,80.9752927 168.919494,81.5981205 170.251057,82.4777563 L168.137189,88.7010079 C165.444362,87.084306 162.747421,86.3824252 160.047739,86.5770874 C158.15458,86.7137166 156.754017,87.1656437 155.846507,87.9287563 C154.93854,88.6886702 154.482044,89.637306 154.477017,90.7769483 C154.471991,91.9152199 154.990176,92.7331669 156.031574,93.2289616 C157.072971,93.7302397 158.664083,94.1967894 160.805368,94.6318093 C163.030275,95.1358291 164.850779,95.6649815 166.267792,96.2178954 C167.684805,96.7767497 168.898474,97.709849 169.908799,99.0194781 C170.919123,100.337332 171.419487,102.156465 171.409583,104.47322 C171.401209,106.458683 170.926891,108.277359 169.987395,109.921021 C169.047441,111.557829 167.642766,112.851008 165.773825,113.799644 C163.904885,114.738226 161.633825,115.199293 158.961103,115.187636 C156.650289,115.177359 154.41807,114.811339 152.263991,114.097121" id="Fill-22"></path>
                    <polygon id="Fill-24" points="190.031803 86.1095781 180.678419 86.7383464 180.70675 80.0256974 206.179174 77.8857834 206.150843 85.0329954 196.797002 85.6567371 196.676366 115.711949 189.911168 115.668995"></polygon>
                </g>
            </g>
        </g>
    </g>
</svg>