<svg id="logo" class="logo" xmlns="http://www.w3.org/2000/svg" xmlns:xlink="http://www.w3.org/1999/xlink" x="0px" y="0px" viewBox="0 0 1860 395" style="enable-background:new 0 0 1860 395;" xml:space="preserve">
  <g>
    <g>
      <path class="st0" d="M36.5,193.8L79.2,88.2l49.1,19.9c12.1,4.9,20.1,11.7,23.8,20.5c2.9,6.8,2.9,13.8,0,20.9l-0.1,0.3
        c-4,9.9-11.7,15.6-23.2,17.1c5.6,5.1,9.2,10.4,10.9,15.8c1.7,5.4,1.2,11.5-1.6,18.3l-0.1,0.3c-3.8,9.4-10.3,15.2-19.3,17.3
        c-9.1,2.1-19.7,0.6-32-4.3L36.5,193.8z M67.3,182.6l27.6,11.2c5.2,2.1,9.7,2.8,13.3,2c3.6-0.8,6.2-3.1,7.8-6.9l0.1-0.3
        c1.5-3.6,1.2-7-0.8-10.2c-2-3.2-5.9-5.9-11.7-8.2l-26.9-10.9L67.3,182.6z M84.6,139.9l21.4,8.7c11.1,4.5,18.2,3,21.2-4.4l0.1-0.3
        c1.4-3.5,1.2-6.7-0.7-9.6c-1.9-2.9-5.2-5.4-10.1-7.3l-23-9.3L84.6,139.9z"/>
      <path class="st0" d="M158.4,241.8l78.7-96.6l22.1,6.4l15.1,123.7l-25.2-7.3l-2.9-27.6L200.1,227L183,248.8L158.4,241.8z
        M214.8,208.4l29.1,8.4l-4.2-39.7L214.8,208.4z"/>
      <path class="st0" d="M315.6,283.5l18.7-112.3l24.7,4.1L344,265.1l56,9.3l-3.7,22.5L315.6,283.5z"/>
      <path class="st0" d="M432.5,301.4l50-114.2l23,0.2l47.7,115.1l-26.2-0.3l-10.1-25.8l-48.1-0.5l-10.7,25.6L432.5,301.4z
        M477.8,254.2l30.3,0.3l-14.7-37.1L477.8,254.2z"/>
      <path class="st0" d="M599.2,297.1l-18.9-112.3l22.8-3.8l64.2,60.3l-11.6-69.2l24.4-4.1l18.9,112.3l-21,3.5l-66.4-62.2l12,71.3
        L599.2,297.1z"/>
      <path class="st0" d="M737.7,253.8l8.9-21.3c13.4,5.6,25.6,6.6,36.5,3.3c4.9-1.5,8.5-3.6,10.7-6.3c2.2-2.7,2.8-5.6,1.9-8.8
        l-0.1-0.3c-0.7-2.1-1.8-3.7-3.3-4.8c-1.6-1.1-4.1-1.8-7.7-2.3c-3.6-0.4-8.7-0.5-15.2-0.1c-3.7,0.2-6.9,0.3-9.7,0.3
        c-2.7,0-5.6-0.2-8.6-0.4c-3-0.3-5.6-0.7-7.8-1.3c-2.2-0.6-4.4-1.5-6.5-2.6c-2.2-1.1-4.1-2.5-5.7-4.1c-1.6-1.6-3.1-3.6-4.4-6
        c-1.4-2.4-2.5-5-3.4-8.1l-0.1-0.3c-3-9.8-1.9-18.8,3.3-27c5.2-8.2,13.4-14,24.6-17.4c15.5-4.8,30.3-4.3,44.5,1.3l-6.8,21.9
        c-12.6-4-23.1-4.7-31.6-2.1c-4.5,1.4-7.7,3.3-9.6,5.9c-1.9,2.5-2.4,5.2-1.6,8l0.1,0.3c1.1,3.5,3.4,5.7,7,6.6s10.6,1.1,21,0.6
        c6.3-0.3,11.7-0.1,16.3,0.4c4.5,0.5,8.7,1.6,12.6,3.2c3.8,1.6,7,3.9,9.6,7c2.5,3.1,4.5,6.9,6,11.6l0.1,0.3
        c3.3,10.6,2.2,20-3.3,28.2c-5.5,8.2-14.2,14.1-26.1,17.8c-8.4,2.6-17,3.6-25.9,3.2S745.8,257.5,737.7,253.8z"/>
      <path class="st0" d="M871.6,227l-45-104.6l78.9-33.9l8.8,20.5l-56.2,24.2l9.1,21.2l49.5-21.3l8.8,20.5L876,174.8l9.4,22l57-24.5
        l8.8,20.5L871.6,227z"/>
    </g>
    <g>
      <path class="st0" d="M1064.9,286.3L1030,177.9l25.8-8.3l43.2,36.7l13.7-55l25.8-8.3l34.9,108.4l-23.8,7.7l-22.8-70.8l-15.6,56.1
        l-0.6,0.2l-44.9-36.1l22.6,70.3L1064.9,286.3z"/>
      <path class="st0" d="M1212.4,242.3l-21.2-111.9l84.4-16l4.2,21.9l-60.1,11.4l4.3,22.6l52.9-10l4.2,21.9l-52.9,10l4.4,23.5
        l60.9-11.5l4.2,21.9L1212.4,242.3z"/>
      <path class="st0" d="M1332.3,221.8l-6.6-113.7l52-3c14.4-0.8,25.7,2.4,33.8,9.6c6.9,6.1,10.6,14.5,11.3,25.3l0,0.4
        c0.5,8.8-1.2,16.3-5.2,22.5c-4,6.2-9.7,10.9-17.1,14.1l30.1,39.1l-29.3,1.7l-26.5-35.1l-19.7,1.1l2.1,36.5L1332.3,221.8z
        M1353.8,161.9l25.4-1.5c6-0.3,10.6-2.1,13.8-5.2c3.2-3.1,4.7-7.1,4.4-11.9l0-0.3c-0.3-5.3-2.3-9.2-5.9-11.7
        c-3.6-2.6-8.5-3.7-14.7-3.3l-24.9,1.5L1353.8,161.9z"/>
      <path class="st0" d="M1461.8,217.1l11.1-113.3l24.9,2.4l-4.8,49.6l50.8-45.1l30.1,2.9l-50.9,43.6l41.9,69.9l-30-2.9l-30.5-51.6
        l-14.4,12.3l-3.4,34.6L1461.8,217.1z"/>
      <path class="st0" d="M1592.3,233.1l25-111.1l83.7,18.9l-4.9,21.8l-59.6-13.4l-5.1,22.5l52.5,11.8l-4.9,21.8l-52.5-11.8l-5.3,23.3
        l60.5,13.6l-4.9,21.8L1592.3,233.1z"/>
      <path class="st0" d="M1732,173.4l7.2-22l89.6,29.3l-7.2,22l-32.9-10.7l-28.2,86.3l-23.8-7.8l28.2-86.3L1732,173.4z"/>
    </g>
    <path class="st0" d="M1011.5,112.6l-7.5-16.3c35.3-16.3,92.9-39.9,166.4-59.8c88.6-23.9,177-36.1,262.6-36.1
      c79.2,0,165.8,12.5,257.6,37.1c88.4,23.7,151.8,50.9,169.1,58.7l-7.4,16.4c-21.5-9.6-215.5-94.2-419.3-94.2
      C1236.7,18.4,1072.9,84.2,1011.5,112.6z"/>
    <path class="st0" d="M486.2,395.3c-125.6,0-251-31.3-334-57.6C62.3,309.2,1,280.3,0.4,280l7.7-16.3c0.6,0.3,60.9,28.8,149.7,56.9
      c81.8,25.9,205.1,56.7,328.3,56.7c97.3,0,198-15.4,299.3-45.6c81.7-24.4,141.2-51.8,169.7-64.9c2.5-1.2,4.7-2.2,6.7-3.1
      c3-1.4,6.7-3.1,10.9-5.1l0.2-0.1l7.6,16.3l-0.2,0.1c-4.3,2-8,3.8-11.1,5.2c-2,0.9-4.2,1.9-6.7,3.1c-28.9,13.3-89.1,41-172.1,65.8
      C687.7,379.7,585.2,395.3,486.2,395.3z"/>
  </g>
</svg>